<svg width="728" height="592" viewBox="0 0 728 592" fill="none" xmlns="http://www.w3.org/2000/svg">
<path d="M727.561 70.1897C700.806 82.0451 672.065 90.0555 641.85 93.6762C672.674 75.2202 696.321 45.9342 707.471 11.0728C678.634 28.1831 646.688 40.6152 612.692 47.2799C585.456 18.3142 546.686 0.17865 503.75 0.17865C421.339 0.17865 354.5 67.0176 354.5 149.493C354.5 161.156 355.846 172.499 358.345 183.457C234.248 177.209 124.313 117.772 50.6809 27.4782C37.8642 49.5869 30.4947 75.2202 30.4947 102.52C30.4947 154.299 56.865 200.023 96.885 226.777C72.4052 225.976 49.3993 219.28 29.2771 208.097V210.02C29.2771 282.338 80.704 342.672 149.017 356.386C136.456 359.782 123.287 361.577 109.702 361.577C100.089 361.577 90.701 360.68 81.6011 358.949C100.602 418.226 155.714 461.419 221.046 462.572C169.94 502.624 105.568 526.495 35.6534 526.495C23.6057 526.495 11.7182 525.79 0.0230408 524.412C66.093 566.804 144.531 591.476 228.801 591.476C503.398 591.476 653.513 364.044 653.513 166.795C653.513 160.387 653.353 153.915 653.064 147.506C682.222 126.423 707.535 100.181 727.497 70.2858L727.561 70.1897Z" fill="white"/>
</svg>
